<svg width="24" height="25" viewBox="0 0 24 25" fill="none" xmlns="http://www.w3.org/2000/svg">
<g clip-path="url(#clip0_59_470)">
<path d="M12 0.5C9.24759 0.5 7 2.74759 7 5.5V7.5H6.25C5.01625 7.5 4 8.51625 4 9.75V20.25C4 21.4838 5.01625 22.5 6.25 22.5H17.75C18.9838 22.5 20 21.4838 20 20.25V9.75C20 8.51625 18.9838 7.5 17.75 7.5H17V5.5C17 2.74759 14.7524 0.5 12 0.5ZM12 2C13.9416 2 15.5 3.55841 15.5 5.5V7.5H8.5V5.5C8.5 3.55841 10.0584 2 12 2ZM6.25 9H17.75C18.1732 9 18.5 9.32675 18.5 9.75V20.25C18.5 20.6733 18.1732 21 17.75 21H6.25C5.82675 21 5.5 20.6733 5.5 20.25V9.75C5.5 9.32675 5.82675 9 6.25 9ZM12.0098 10.501C11.8337 10.5011 11.6611 10.5201 11.4941 10.5557C10.4923 10.769 9.68849 11.5861 9.5293 12.6152C9.51319 12.713 9.51663 12.813 9.53941 12.9095C9.56218 13.006 9.60385 13.0969 9.662 13.1772C9.72015 13.2575 9.79362 13.3254 9.87818 13.3771C9.96274 13.4288 10.0567 13.4632 10.1547 13.4784C10.2526 13.4935 10.3526 13.4891 10.4488 13.4654C10.545 13.4417 10.6356 13.3992 10.7153 13.3403C10.795 13.2813 10.8622 13.2072 10.9131 13.1222C10.964 13.0371 10.9975 12.9428 11.0117 12.8447C11.0965 12.2969 11.5948 11.8879 12.2305 12.0244C12.579 12.0993 12.8925 12.4083 12.9717 12.7549C13.0928 13.2884 12.8267 13.7175 12.4229 13.9062H12.4219C11.7079 14.2403 11.25 14.9624 11.25 15.75C11.2486 15.8494 11.267 15.9481 11.304 16.0403C11.3411 16.1325 11.3961 16.2164 11.4659 16.2872C11.5357 16.358 11.6188 16.4142 11.7105 16.4526C11.8022 16.4909 11.9006 16.5107 12 16.5107C12.0994 16.5107 12.1978 16.4909 12.2895 16.4526C12.3812 16.4142 12.4643 16.358 12.5341 16.2872C12.6039 16.2164 12.6589 16.1325 12.696 16.0403C12.733 15.9481 12.7514 15.8494 12.75 15.75C12.75 15.5396 12.8676 15.3545 13.0576 15.2656C14.0745 14.7905 14.7088 13.6278 14.4336 12.4209V12.4199C14.2198 11.4845 13.4823 10.7597 12.5459 10.5586C12.3652 10.5198 12.1858 10.5009 12.0098 10.501ZM12 17.5C11.7348 17.5 11.4804 17.6054 11.2929 17.7929C11.1054 17.9804 11 18.2348 11 18.5C11 18.7652 11.1054 19.0196 11.2929 19.2071C11.4804 19.3946 11.7348 19.5 12 19.5C12.2652 19.5 12.5196 19.3946 12.7071 19.2071C12.8946 19.0196 13 18.7652 13 18.5C13 18.2348 12.8946 17.9804 12.7071 17.7929C12.5196 17.6054 12.2652 17.5 12 17.5Z" fill="#4EA04C"/>
</g>
<defs>
<clipPath id="clip0_59_470">
<rect width="24" height="24" fill="white" transform="translate(0 0.5)"/>
</clipPath>
</defs>
</svg>
